<svg width="210" height="194" viewBox="0 0 210 194" fill="none" xmlns="http://www.w3.org/2000/svg">
<g filter="url(#filter0_d_25_1028)">
<path d="M95.907 15.9488C99.607 9.01249 109.495 8.86142 113.405 15.6814L138.055 58.6732C139.566 61.3092 142.194 63.1151 145.197 63.581L191.331 70.7394C199.264 71.9704 202.586 81.5773 197.107 87.4456L164.594 122.268C162.571 124.435 161.613 127.388 161.98 130.33L167.461 174.286C168.428 182.039 160.527 187.857 153.41 184.631L108.545 164.299C105.92 163.109 102.91 163.11 100.285 164.301L54.7008 184.983C47.7599 188.132 39.9885 182.67 40.6015 175.072L44.2513 129.836C44.4656 127.181 43.6114 124.55 41.8784 122.527L11.7184 87.3167C6.6128 81.3563 10.0492 72.1064 17.808 70.9252L65.9339 63.5986C69.0539 63.1237 71.7666 61.2037 73.252 58.4191L95.907 15.9488Z" fill="#FFF2CC"/>
</g>
<defs>
<filter id="filter0_d_25_1028" x="5.30273" y="10.6553" width="198.505" height="183.236" filterUnits="userSpaceOnUse" color-interpolation-filters="sRGB">
<feFlood flood-opacity="0" result="BackgroundImageFix"/>
<feColorMatrix in="SourceAlpha" type="matrix" values="0 0 0 0 0 0 0 0 0 0 0 0 0 0 0 0 0 0 127 0" result="hardAlpha"/>
<feOffset dy="4"/>
<feGaussianBlur stdDeviation="2"/>
<feComposite in2="hardAlpha" operator="out"/>
<feColorMatrix type="matrix" values="0 0 0 0 0 0 0 0 0 0 0 0 0 0 0 0 0 0 0.25 0"/>
<feBlend mode="normal" in2="BackgroundImageFix" result="effect1_dropShadow_25_1028"/>
<feBlend mode="normal" in="SourceGraphic" in2="effect1_dropShadow_25_1028" result="shape"/>
</filter>
</defs>
</svg>
